<svg width="192" height="192" viewBox="0 0 192 192" fill="none" xmlns="http://www.w3.org/2000/svg">
<path fill-rule="evenodd" clip-rule="evenodd" d="M94.4358 192C91.072 192 87.9484 191.76 84.5846 191.28C31.7248 184.8 -5.75756 136.8 0.729774 84.24C4.57412 53.76 22.3542 28.32 47.5828 13.44L51.1868 11.28C51.7875 11.04 52.3281 10.74 52.8687 10.44C53.4094 10.14 53.95 9.84 54.5507 9.6C56.4728 8.64 58.6353 7.68 60.7977 6.72C61.2783 6.72 61.7588 6.48 62.2393 6.24C68.967 3.84 75.6946 1.92 82.9027 0.96C83.8638 0.72 85.0652 0.48 86.0263 0.48C89.8706 0.24 94.1955 0 98.2801 0C101.404 0 104.767 0.24 108.131 0.72C142.49 5.04 170.842 26.88 183.336 56.4C183.456 56.6398 183.576 56.9396 183.697 57.2394L183.697 57.2399C183.817 57.54 183.937 57.84 184.057 58.08C189.343 70.56 192.226 84 191.986 97.92V99.84L191.265 107.76C187.661 138.48 169.641 163.92 145.133 178.56L141.529 180.72C140.928 180.96 140.388 181.26 139.847 181.56C139.307 181.86 138.766 182.16 138.165 182.4C136.243 183.36 134.081 184.32 131.919 185.28L131.918 185.28C131.438 185.28 130.957 185.52 130.477 185.76C123.749 188.16 117.021 190.08 109.813 191.04C108.852 191.28 107.651 191.52 106.69 191.52C102.845 191.76 98.5204 192 94.4358 192ZM14.1851 85.92C13.9448 88.08 13.7045 90.24 13.7045 92.4V93.12V98.4V99.6C13.7045 101.28 13.7045 102.96 13.9448 104.64C13.9448 104.88 14.0049 105.06 14.0649 105.24C14.125 105.42 14.1851 105.6 14.1851 105.84L14.9059 110.88C16.1072 110.88 17.3086 110.64 18.51 110.4C18.7031 110.336 18.879 110.289 19.0423 110.245C19.4883 110.126 19.8401 110.031 20.1919 109.68C29.3222 106.8 36.2901 98.88 37.4914 88.8C38.6928 79.2 34.3679 70.32 26.9195 65.04C25.6944 64.5156 24.5967 63.8638 23.4409 63.1774L23.4406 63.1772L23.4401 63.177C23.0094 62.9212 22.5706 62.6606 22.114 62.4C21.8738 62.4 21.3932 62.16 21.153 61.92C20.4321 63.36 19.7113 65.04 19.2308 66.48C19.1107 66.6 18.9905 66.78 18.8704 66.96L18.8704 66.96C18.7502 67.14 18.6301 67.32 18.51 67.44C17.7891 68.88 17.3086 70.56 16.8281 72.24C16.8281 72.48 16.768 72.66 16.7079 72.84C16.6479 73.0201 16.5878 73.2 16.5878 73.44C16.1072 74.88 15.6267 76.56 15.3864 78.24C15.3864 78.48 15.3264 78.72 15.2663 78.96C15.2062 79.2 15.1462 79.44 15.1462 79.68C14.7132 81.4099 14.4753 83.3346 14.2567 85.1031C14.2327 85.2974 14.2089 85.4899 14.1851 85.68V85.92ZM30.5234 46.08C31.004 45.6 31.4845 44.88 31.9651 44.16C32.6859 43.2 33.647 42.24 34.6081 41.28C35.0886 40.56 35.5691 40.08 36.29 39.36C36.7634 38.7294 37.3405 38.2025 37.9531 37.643L37.9531 37.643L37.9532 37.6429L37.9532 37.6429L37.9532 37.6429L37.9532 37.6429L37.9533 37.6429L37.9533 37.6428C38.2734 37.3505 38.6032 37.0494 38.9329 36.72L40.8551 34.8C41.2155 34.44 41.636 34.08 42.0565 33.72C42.477 33.36 42.8974 33 43.2578 32.64C43.8282 32.0702 44.3986 31.6508 45.088 31.1438L45.088 31.1438C45.2699 31.01 45.46 30.8702 45.6606 30.72C46.1832 30.1979 46.8322 29.802 47.4243 29.4408C47.6488 29.3039 47.8651 29.1719 48.0633 29.04C48.3608 28.8171 48.6353 28.5942 48.9011 28.3784C49.4937 27.8972 50.0427 27.4514 50.7063 27.12L52.8687 25.68C53.3492 25.32 53.8898 25.02 54.4304 24.72L54.4305 24.72C54.9711 24.42 55.5117 24.12 55.9922 23.76C56.3526 23.52 56.7131 23.34 57.0735 23.16L57.0735 23.16C57.4339 22.98 57.7943 22.8 58.1547 22.56C58.9756 22.068 59.7966 21.688 60.5409 21.3436L60.5409 21.3435C60.8858 21.1839 61.2142 21.0319 61.5185 20.88C62.2393 20.64 62.9601 20.4 63.6809 19.92C64.642 19.44 65.6031 18.96 66.8045 18.72C71.6099 29.04 68.7266 41.76 59.356 49.2C56.7131 51.36 53.5895 52.8 50.466 53.52C42.7773 55.2 34.8483 53.52 28.6013 48.48C29.0818 48 29.8026 47.04 30.5234 46.08ZM86.3867 14.2802C85.9663 14.3402 85.5458 14.4002 85.0652 14.4002C84.5548 14.5276 84.0443 14.5874 83.4979 14.6514C83.0155 14.7079 82.505 14.7676 81.9417 14.8802C83.6236 25.6802 92.5137 34.8002 104.047 36.2402C107.411 36.4802 110.534 36.2402 113.658 35.5202C120.866 33.3602 126.873 27.8402 129.756 20.6402C129.275 20.4002 128.855 20.2202 128.434 20.0402C128.014 19.8602 127.593 19.6802 127.113 19.4402C126.632 19.3202 126.212 19.1402 125.791 18.9602C125.371 18.7802 124.95 18.6002 124.47 18.4802C124.196 18.3707 123.935 18.2613 123.68 18.1547C122.818 17.7938 122.033 17.4655 121.106 17.2802C120.625 17.1602 120.205 17.0402 119.785 16.9202C119.364 16.8002 118.944 16.6802 118.463 16.5602C117.43 16.1474 116.219 15.9121 115.136 15.7017C114.96 15.6674 114.787 15.6338 114.619 15.6002C114.258 15.4802 113.898 15.4202 113.537 15.3602C113.177 15.3002 112.817 15.2402 112.456 15.1202C111.375 15.0002 110.354 14.8202 109.333 14.6402L109.333 14.6402C108.312 14.4602 107.29 14.2802 106.209 14.1602H105.969C104.047 13.9202 101.884 13.6802 99.9621 13.6802H97.7996H93.715C93.3546 13.6802 92.9341 13.7402 92.5137 13.8002C92.0932 13.8602 91.6727 13.9202 91.3123 13.9202C90.111 13.9202 88.9096 13.9202 87.7082 14.1602C87.2277 14.1602 86.8072 14.2202 86.3867 14.2802ZM157.387 40.5598C158.348 41.5198 159.069 42.4798 159.79 43.4398C160.03 43.7998 160.27 44.0998 160.51 44.3998C160.751 44.6998 160.991 44.9998 161.231 45.3598L163.394 48.2398L164.835 50.3998C165.196 50.8798 165.496 51.3598 165.796 51.8398C166.097 52.3198 166.397 52.7998 166.757 53.2798C166.998 53.6398 167.238 54.0598 167.478 54.4798C167.719 54.8998 167.959 55.3198 168.199 55.6798L169.641 58.5598C169.881 59.0396 170.121 59.4595 170.361 59.8793L170.362 59.8798C170.602 60.2998 170.842 60.7198 171.082 61.1998C171.323 61.6798 171.503 62.1598 171.683 62.6398C171.863 63.1198 172.043 63.5998 172.284 64.0798C172.524 64.5598 172.704 65.0398 172.884 65.5198C173.065 65.9998 173.245 66.4798 173.485 66.9598C172.524 67.4398 171.323 67.9198 170.362 68.1598C170.121 68.2798 169.881 68.3398 169.641 68.3998C169.4 68.4598 169.16 68.5198 168.92 68.6398C159.79 70.5598 149.698 67.4398 143.691 59.5198C136.483 50.1598 136.724 37.4398 143.691 28.3198L146.575 30.4798C146.815 30.7198 147.115 30.9598 147.416 31.1998C147.716 31.4398 148.016 31.6798 148.257 31.9198C148.737 32.3998 149.278 32.8198 149.818 33.2398C150.359 33.6598 150.9 34.0798 151.38 34.5598C151.62 34.7998 151.921 35.0398 152.221 35.2799C152.521 35.5198 152.822 35.7598 153.062 35.9998L155.945 38.8798C156.426 39.3598 156.906 39.8398 157.387 40.5598ZM178.651 86.5199C178.591 86.3399 178.531 86.1599 178.531 85.9199C178.291 84.2399 178.05 82.5599 177.81 81.5999C176.609 81.5999 175.407 81.8399 174.206 82.0799C173.966 82.1999 173.665 82.2599 173.365 82.3199C173.065 82.3799 172.764 82.4398 172.524 82.5599C163.394 85.4398 156.426 93.3599 155.225 103.44C154.023 113.04 158.348 121.92 165.797 127.2C167.022 127.724 168.119 128.376 169.275 129.063C169.706 129.318 170.145 129.579 170.602 129.84C170.842 129.96 171.022 130.02 171.203 130.08C171.383 130.14 171.563 130.2 171.803 130.32C172.524 128.88 173.245 127.2 173.726 125.76C173.846 125.64 173.906 125.46 173.966 125.28C174.026 125.1 174.086 124.92 174.206 124.8C174.927 123.36 175.407 121.68 175.888 120C175.888 119.76 175.948 119.58 176.008 119.4C176.068 119.22 176.128 119.04 176.128 118.8C176.609 117.36 177.089 115.68 177.33 114C177.33 113.76 177.39 113.52 177.45 113.28C177.51 113.04 177.57 112.8 177.57 112.56C178.003 110.83 178.241 108.905 178.459 107.137L178.459 107.137L178.498 106.826L178.531 106.56V106.32C178.771 104.16 179.011 102 179.011 99.8399V98.6399V93.3599V92.1599C179.011 90.4799 179.011 88.7999 178.771 87.1199C178.771 86.8799 178.711 86.6999 178.651 86.5199ZM162.192 145.92C161.712 146.4 161.231 147.12 160.751 147.84C160.03 148.8 159.069 149.76 158.108 150.72C157.627 151.44 157.147 151.92 156.426 152.64C155.952 153.27 155.375 153.797 154.762 154.357C154.442 154.649 154.113 154.95 153.783 155.28L151.861 157.2C151.5 157.56 151.08 157.92 150.659 158.28C150.239 158.64 149.818 159 149.458 159.36C148.737 160.08 148.016 160.8 147.055 161.28C146.533 161.802 145.884 162.198 145.292 162.559L145.291 162.559C145.067 162.696 144.851 162.828 144.653 162.96C143.691 163.68 142.73 164.4 142.01 164.88L139.847 166.32C139.367 166.68 138.826 166.98 138.285 167.28L138.285 167.28C137.745 167.58 137.204 167.88 136.724 168.24C136.363 168.48 136.003 168.66 135.642 168.84C135.282 169.02 134.922 169.2 134.561 169.44C133.741 169.932 132.92 170.311 132.176 170.656L132.175 170.656L132.175 170.656C131.83 170.816 131.502 170.968 131.197 171.12C130.477 171.36 129.756 171.6 129.035 172.08C128.074 172.56 127.113 173.04 125.911 173.28C121.106 162.96 123.989 150.24 133.36 142.8C136.003 140.64 139.126 139.2 142.25 138.48C149.939 136.8 157.867 138.48 164.115 143.52C163.634 144 162.913 144.96 162.193 145.919L162.192 145.92ZM106.329 177.84C106.75 177.78 107.17 177.72 107.651 177.6C108.612 177.36 109.573 177.36 110.534 177.36C108.852 166.56 99.962 157.44 88.4289 156C85.0651 155.76 81.9416 156 78.8181 156.72C71.6099 158.88 65.6031 164.4 62.7198 171.6C63.2004 171.84 63.6209 172.02 64.0414 172.2C64.4618 172.38 64.8823 172.56 65.3628 172.8C65.8434 172.92 66.2639 173.1 66.6843 173.28C67.1048 173.46 67.5253 173.64 68.0058 173.76C68.2797 173.869 68.5412 173.979 68.7958 174.085C69.6579 174.446 70.4422 174.775 71.3696 174.96C71.8502 175.08 72.2707 175.2 72.6911 175.32C73.1116 175.44 73.5321 175.56 74.0126 175.68C75.0457 176.093 76.2564 176.328 77.3392 176.538L77.3395 176.538C77.5158 176.573 77.6888 176.606 77.857 176.64C78.2174 176.76 78.5778 176.82 78.9382 176.88C79.2986 176.94 79.659 177 80.0194 177.12C81.1003 177.24 82.1211 177.42 83.1419 177.6L83.1423 177.6L83.1429 177.6L83.1436 177.6C84.1645 177.78 85.1855 177.96 86.2665 178.08H86.5068C88.4289 178.32 90.5914 178.56 92.5135 178.56H94.676H98.7606C99.2411 178.56 99.6615 178.5 100.082 178.44L100.082 178.44C100.503 178.38 100.923 178.32 101.404 178.32C102.605 178.32 103.806 178.32 105.008 178.08C105.488 177.96 105.909 177.9 106.329 177.84ZM35.3289 151.44C34.3678 150.48 33.647 149.52 32.9262 148.56L32.9261 148.56C32.6859 148.2 32.4457 147.9 32.2055 147.6L32.2053 147.6C31.9651 147.3 31.7248 147 31.4845 146.64L29.3221 143.76L27.8804 141.6C27.52 141.12 27.2197 140.64 26.9193 140.16C26.619 139.68 26.3187 139.2 25.9583 138.72C25.718 138.36 25.4777 137.94 25.2374 137.52C24.9972 137.1 24.7569 136.68 24.5166 136.32L23.075 133.44C22.8347 132.96 22.5945 132.54 22.3542 132.12L22.354 132.12C22.1138 131.7 21.8736 131.28 21.6334 130.8C21.3931 130.32 21.2129 129.84 21.0327 129.36C20.8525 128.88 20.6723 128.4 20.432 127.92C20.1917 127.44 20.0115 126.96 19.8313 126.48C19.6511 126 19.4709 125.52 19.2307 125.04C20.1917 124.56 21.3931 124.08 22.3542 123.84C22.5945 123.72 22.8347 123.66 23.075 123.6C23.3153 123.54 23.5555 123.48 23.7958 123.36C32.9261 121.44 43.0176 124.56 49.0243 132.48C56.2325 141.84 55.9922 154.56 49.0243 163.68L46.1411 161.52C45.9008 161.28 45.6005 161.04 45.3001 160.8C44.9998 160.56 44.6995 160.32 44.4592 160.08C43.9787 159.6 43.4382 159.18 42.8976 158.76L42.8974 158.76C42.3568 158.34 41.8162 157.92 41.3357 157.44C41.0954 157.2 40.795 156.96 40.4947 156.72C40.1943 156.48 39.894 156.24 39.6538 156L36.7705 153.12C36.2899 152.64 35.8094 152.16 35.3289 151.44ZM116.301 49.1999C111.735 50.6399 106.449 51.1199 101.404 50.3999C93.9553 49.4399 87.4679 46.5599 81.9417 42.2399C79.539 49.1999 75.2141 55.4399 68.967 60.2399C64.4018 63.8399 59.3561 66.2399 54.3104 67.4399C52.3883 67.9199 50.2258 68.3999 48.3036 68.6399C51.6674 75.3599 53.1091 82.7999 52.148 90.7199C51.1869 98.3999 48.0634 105.6 43.2579 111.12C50.2258 113.52 56.4729 117.84 61.2783 124.08C66.324 130.56 68.967 138 69.4476 145.44C69.7944 145.301 70.1362 145.163 70.4745 145.026C72.4796 144.213 74.3595 143.451 76.4154 143.04C80.9806 141.6 86.2666 141.12 91.3123 141.84C98.7607 142.8 105.248 145.68 110.774 150C113.177 143.04 117.502 136.8 123.749 132C128.314 128.4 133.12 126 138.406 124.8C140.328 124.32 142.49 123.84 144.412 123.6C141.049 116.88 139.607 109.44 140.568 101.52C141.529 93.8399 144.653 86.6399 149.458 81.1199C142.49 78.7199 136.243 74.3999 131.438 68.1599C126.392 61.6799 123.749 54.2399 123.268 46.7999C122.922 46.9384 122.58 47.077 122.242 47.2141C120.236 48.027 118.356 48.7892 116.301 49.1999Z" fill="#E5DFDB"/>
</svg>
